<svg width="520" height="180" viewBox="0 0 520 180" fill="none" color="#4a0660" xmlns="http://www.w3.org/2000/svg">
  <path d="M24 28c69 45 137 47 205 8 65-37 139-33 267 85" stroke="currentColor" stroke-width="7" stroke-linecap="round" opacity=".42"/>
  <path d="M252 40c-20-27-21-31-7-41 24 5 31 18 7 41Zm49-8c-4-27 0-36 18-38 18 17 17 31-18 38Zm50 14c9-25 17-32 34-25 8 23 1 35-34 25Zm43 28c20-17 31-19 42-4-3 24-15 30-42 4Zm39 35c25-7 35-4 40 14-15 19-28 20-40-14Z" fill="currentColor" opacity=".36"/>
  <path d="M177 65c-26-9-32-17-24-34 24-8 36 0 24 34Zm-57 11c-24-14-28-24-16-38 25-3 35 8 16 38Zm-58-9C40 50 38 39 52 27c25 2 33 15 10 40Z" fill="currentColor" opacity=".26"/>
</svg>
